<svg xmlns="http://www.w3.org/2000/svg" version="1.1" viewBox="-5.0 -10.0 110.0 135.0">
 <path d="m34.945 43.867c3.1719 0 6.0625 1.207 8.2344 3.1836v-25.586c0-1.1055 0.89453-2 2-2 0.30469 0 0.59375 0.070312 0.85156 0.19141l29.969 12.16c0.77734 0.3125 1.2461 1.0625 1.2461 1.8516l0.003906 34.637c0 3.3789-1.3711 6.4375-3.582 8.6523-2.2109 2.2109-5.2734 3.582-8.6523 3.582s-6.4375-1.3711-8.6523-3.582c-2.2109-2.2109-3.582-5.2734-3.582-8.6523 0-3.3789 1.3711-6.4375 3.582-8.6523 2.2109-2.2109 5.2734-3.582 8.6523-3.582 3.1719 0 6.0625 1.207 8.2344 3.1836v-24.242l-26.07-10.578v31.668c0 3.3789-1.3711 6.4375-3.582 8.6523-2.2109 2.2109-5.2734 3.582-8.6523 3.582-3.3789 0-6.4375-1.3711-8.6523-3.582-2.2109-2.2109-3.582-5.2734-3.582-8.6523 0-3.3789 1.3711-6.4375 3.582-8.6523 2.2109-2.2109 5.2734-3.582 8.6523-3.582zm-17.938 41.531h39.047v4h-39.047v3.4609h65.984v-78.254h-39.09v-4h39.09v-3.4609h-49.688v14.297c0 1.1055-0.89453 2-2 2h-14.297zm2.8281-65.957h9.4727v-9.4727zm-6.8281 75.414v-73.414c0-0.55469 0.23047-1.0586 0.62109-1.4492l16.23-16.23c0.375-0.375 0.85156-0.60547 1.4492-0.62109h53.684c1.1055 0 2 0.89453 2 2v89.715c0 1.1055-0.89453 2-2 2h-69.984c-1.1055 0-2-0.89453-2-2zm57.828-32.379c-1.4883-1.4883-3.5508-2.4102-5.8242-2.4102-2.2734 0-4.332 0.92188-5.8242 2.4102-1.4883 1.4883-2.4102 3.5508-2.4102 5.8242 0 2.2734 0.92188 4.332 2.4102 5.8242 1.4883 1.4883 3.5508 2.4102 5.8242 2.4102 2.2734 0 4.332-0.92188 5.8242-2.4102 1.4883-1.4883 2.4102-3.5508 2.4102-5.8242 0-2.2734-0.92188-4.332-2.4102-5.8242zm-30.07-12.199c-1.4883-1.4883-3.5508-2.4102-5.8242-2.4102-2.2734 0-4.332 0.92187-5.8242 2.4102-1.4883 1.4883-2.4102 3.5508-2.4102 5.8242 0 2.2734 0.92188 4.332 2.4102 5.8242 1.4883 1.4883 3.5508 2.4102 5.8242 2.4102 2.2734 0 4.332-0.92188 5.8242-2.4102 1.4883-1.4883 2.4102-3.5508 2.4102-5.8242 0-2.2734-0.92188-4.332-2.4102-5.8242z"/>a</svg>