<svg xmlns="http://www.w3.org/2000/svg" version="1.1" viewBox="-5.0 -10.0 110.0 135.0">
 <g>
  <path d="m16.668 100h66.664c2.7617 0 5-2.2383 5-5v-71.668c0.054688-2.5742-0.96875-5.0547-2.8203-6.8438l-13.668-13.668c-1.7891-1.8516-4.2695-2.875-6.8438-2.8203h-48.332c-2.7617 0-5 2.2383-5 5v90c0 2.7617 2.2383 5 5 5zm66.668-3.332h-66.668c-0.92188 0-1.668-0.74609-1.668-1.668v-21.668h70v21.668c0 0.44141-0.17578 0.86719-0.48828 1.1797s-0.73828 0.48828-1.1797 0.48828zm-0.69141-78.332-9.3125-0.003907c-1.8398 0-3.332-1.4922-3.332-3.332v-9.3086zm-65.977-15.004h48.332c0.44141 0 0.86719 0.17578 1.1797 0.48828s0.48828 0.73828 0.48828 1.1797v10c0 1.7695 0.69922 3.4648 1.9531 4.7148 1.25 1.25 2.9453 1.9531 4.7109 1.9531h10c0.44141 0 0.86719 0.17578 1.1797 0.48828s0.48828 0.73438 0.48828 1.1758v46.668h-70v-65c0-0.92188 0.74609-1.668 1.668-1.668z"/>
  <path d="m50.832 76.668c-3.2188 0-5.832 2.6094-5.832 5.832v9.168c0 0.91797 0.74609 1.6641 1.668 1.6641 0.91797 0 1.6641-0.74609 1.6641-1.6641v-3.3359h5v3.3359c0 0.91797 0.74609 1.6641 1.668 1.6641s1.668-0.74609 1.668-1.6641v-9.168c0-1.5469-0.61719-3.0312-1.7109-4.125s-2.5781-1.707-4.125-1.707zm-2.5 8.332v-2.5c0-1.3789 1.1211-2.5 2.5-2.5 1.3828 0 2.5 1.1211 2.5 2.5v2.5z"/>
  <path d="m40 76.668c-0.92188 0-1.668 0.74609-1.668 1.6641v8.332l-2-2.668v0.003906c-0.32812-0.39844-0.81641-0.62891-1.332-0.62891s-1.0039 0.23047-1.332 0.62891l-2 2.668v-8.3359c0-0.91797-0.74609-1.6641-1.668-1.6641s-1.668 0.74609-1.668 1.6641v13.336c0 0.71484 0.46094 1.3516 1.1406 1.5781 0.67969 0.23047 1.4297-0.003906 1.8594-0.57812l3.668-4.8906 3.668 4.8906c0.3125 0.41797 0.80859 0.66406 1.332 0.66406 0.44141 0 0.86719-0.17578 1.1797-0.48828s0.48828-0.73438 0.48828-1.1758v-13.336c0-0.44141-0.17578-0.86328-0.48828-1.1758s-0.73828-0.48828-1.1797-0.48828z"/>
  <path d="m70.5 76.742c-0.87891-0.27344-1.8125 0.21484-2.0859 1.0938l-2.582 8.2422-2.5742-8.2461c-0.27734-0.875-1.2148-1.3633-2.0898-1.0898-0.87891 0.27734-1.3672 1.2148-1.0898 2.0898l4.168 13.332-0.003906 0.003907c0.21875 0.69141 0.86328 1.1641 1.5898 1.1641 0.73047 0 1.3711-0.47266 1.5898-1.1641l4.168-13.332v-0.003907c0.13281-0.42188 0.09375-0.87891-0.11328-1.2695-0.20312-0.39062-0.55469-0.6875-0.97656-0.82031z"/>
  <path d="m20 50c0.44141 0 0.86719-0.17578 1.1797-0.48828s0.48828-0.73828 0.48828-1.1797v-6.6641c0-0.92188-0.74609-1.668-1.668-1.668s-1.668 0.74609-1.668 1.668v6.668-0.003907c0 0.44141 0.17578 0.86719 0.48828 1.1797s0.73828 0.48828 1.1797 0.48828z"/>
  <path d="m26.668 53.332c0.44141 0 0.86328-0.17578 1.1758-0.48828s0.48828-0.73438 0.48828-1.1758v-13.336c0-0.91797-0.74609-1.6641-1.6641-1.6641-0.92188 0-1.668 0.74609-1.668 1.6641v13.336c0 0.44141 0.17578 0.86328 0.48828 1.1758s0.73828 0.48828 1.1797 0.48828z"/>
  <path d="m33.332 63.332c0.44141 0 0.86719-0.17578 1.1797-0.48828s0.48828-0.73438 0.48828-1.1758v-33.336c0-0.91797-0.74609-1.6641-1.668-1.6641-0.91797 0-1.6641 0.74609-1.6641 1.6641v33.336c0 0.44141 0.17578 0.86328 0.48828 1.1758s0.73438 0.48828 1.1758 0.48828z"/>
  <path d="m40 58.332c0.44141 0 0.86719-0.17578 1.1797-0.48828s0.48828-0.73438 0.48828-1.1758v-23.336c0-0.91797-0.74609-1.6641-1.668-1.6641s-1.668 0.74609-1.668 1.6641v23.336c0 0.44141 0.17578 0.86328 0.48828 1.1758s0.73828 0.48828 1.1797 0.48828z"/>
  <path d="m46.668 50c0.44141 0 0.86328-0.17578 1.1758-0.48828s0.48828-0.73828 0.48828-1.1797v-6.6641c0-0.92188-0.74609-1.668-1.6641-1.668-0.92188 0-1.668 0.74609-1.668 1.668v6.668-0.003907c0 0.44141 0.17578 0.86719 0.48828 1.1797s0.73828 0.48828 1.1797 0.48828z"/>
  <path d="m53.332 56.668c0.44141 0 0.86719-0.17578 1.1797-0.48828s0.48828-0.73828 0.48828-1.1797v-20c0-0.92188-0.74609-1.668-1.668-1.668-0.91797 0-1.6641 0.74609-1.6641 1.668v20c0 0.44141 0.17578 0.86719 0.48828 1.1797s0.73438 0.48828 1.1758 0.48828z"/>
  <path d="m60 50c0.44141 0 0.86719-0.17578 1.1797-0.48828s0.48828-0.73828 0.48828-1.1797v-6.6641c0-0.92188-0.74609-1.668-1.668-1.668s-1.668 0.74609-1.668 1.668v6.668-0.003907c0 0.44141 0.17578 0.86719 0.48828 1.1797s0.73828 0.48828 1.1797 0.48828z"/>
  <path d="m66.668 55c0.44141 0 0.86328-0.17578 1.1758-0.48828s0.48828-0.73828 0.48828-1.1797v-16.664c0-0.92188-0.74609-1.668-1.6641-1.668-0.92188 0-1.668 0.74609-1.668 1.668v16.664c0 0.44141 0.17578 0.86719 0.48828 1.1797s0.73828 0.48828 1.1797 0.48828z"/>
  <path d="m73.332 60c0.44141 0 0.86719-0.17578 1.1797-0.48828s0.48828-0.73828 0.48828-1.1797v-26.664c0-0.92188-0.74609-1.668-1.668-1.668-0.91797 0-1.6641 0.74609-1.6641 1.668v26.664c0 0.44141 0.17578 0.86719 0.48828 1.1797s0.73438 0.48828 1.1758 0.48828z"/>
  <path d="m80 50c0.44141 0 0.86719-0.17578 1.1797-0.48828s0.48828-0.73828 0.48828-1.1797v-6.6641c0-0.92188-0.74609-1.668-1.668-1.668s-1.668 0.74609-1.668 1.668v6.668-0.003907c0 0.44141 0.17578 0.86719 0.48828 1.1797s0.73828 0.48828 1.1797 0.48828z"/>
 </g></svg>